Patient4_TMGait_0pt4_01_right_30_GRF.mot
version=1
nRows=65
nColumns=19
inDegrees=no
endheader
time	F1x	F1y	F1z	M1x	M1y	M1z	F2x	F2y	F2z	M2x	M2y	M2z	EC1x	EC1y	EC1z	EC2x	EC2y	EC2z
38.76	6.5506	735.2561	60.9045	-291.2825	-61.7626	833.3729	4.7555	18.3931	-11.2149	7.0573	7.325	23.0171	-0.0592	0.0182	-0.0073	-0.0462	0.0165	0.9585
38.7735	7.0394	727.6781	59.6685	-288.3264	-60.4732	820.7093	2.9135	12.7825	-7.5323	4.9211	5.0207	16.0528	-0.0592	0.0182	-0.0073	-0.0462	0.0165	0.9585
38.787	8.2514	719.9786	58.197	-285.3551	-58.5047	807.4672	1.4063	8.0659	-4.4164	3.118	3.0543	10.1861	-0.0592	0.0182	-0.0073	-0.0462	0.0165	0.9585
38.8005	10.1296	713.5061	56.6177	-282.9022	-56.0025	795.3341	0.30651	4.5052	-2.0476	1.7523	1.544	5.7401	-0.0592	0.0182	-0.0073	-0.0462	0.0165	0.9585
38.814	12.5132	709.5487	55.0911	-281.4705	-53.2106	785.8809	-0.43641	2.0813	-0.41431	0.82028	0.49402	2.7089	-0.0592	0.0182	-0.0073	-0.0462	0.0165	0.9585
38.8275	15.2299	708.9997	53.7281	-281.4055	-50.3474	780.1645	-0.88851	0.60708	0.58368	0.25445	-0.14832	0.86537	-0.0592	0.0182	-0.0073	-0.0462	0.0165	0.9585
38.841	18.1072	712.2304	52.6426	-282.8387	-47.6328	778.6389	-1.1307	-0.16331	1.0965	-0.038034	-0.47139	-0.099934	-0.0592	0.0182	-0.0073	-0.0462	0.0165	0.9585
38.8545	21.0235	719.0855	51.8699	-285.6914	-45.1895	781.1499	-1.2578	-0.49016	1.2709	-0.15851	-0.55593	-0.51138	-0.0592	0.0182	-0.0073	-0.0462	0.0165	0.9585
38.868	23.8851	728.9326	51.4363	-289.6951	-43.1055	787.0202	-1.3174	-0.6422	1.2435	-0.20807	-0.49312	-0.71713	-0.0592	0.0182	-0.0073	-0.0462	0.0165	0.9585
38.8815	26.6644	740.79	51.2986	-294.4447	-41.3682	795.1838	-1.3635	-0.83336	1.1085	-0.2711	-0.34441	-0.97385	-0.0592	0.0182	-0.0073	-0.0462	0.0165	0.9585
38.895	29.368	753.465	51.4138	-299.453	-39.9399	804.3559	-1.4057	-1.2634	0.93934	-0.4215	-0.16825	-1.5269	-0.0592	0.0182	-0.0073	-0.0462	0.0165	0.9585
38.9085	32.0089	765.6734	51.7118	-304.1941	-38.7485	813.1733	-1.4568	-2.0871	0.7756	-0.7155	0.0035801	-2.5604	-0.0592	0.0182	-0.0073	-0.0462	0.0165	0.9585
38.922	34.6223	776.1585	52.1469	-308.1514	-37.7402	820.3156	-1.4943	-3.3896	0.65106	-1.1829	0.1283	-4.1792	-0.0592	0.0182	-0.0073	-0.0462	0.0165	0.9585
38.9355	37.2086	783.8343	52.669	-310.8736	-36.8676	824.6742	-1.4483	-5.1615	0.57584	-1.8187	0.16979	-6.376	-0.0592	0.0182	-0.0073	-0.0462	0.0165	0.9585
38.949	39.7641	787.8516	53.2444	-312.0071	-36.1071	825.4044	-1.2513	-7.253	0.56735	-2.5679	0.081756	-8.9613	-0.0592	0.0182	-0.0073	-0.0462	0.0165	0.9585
38.9625	42.2546	787.6788	53.8565	-311.3347	-35.4631	822.0121	-0.78439	-9.3235	0.63546	-3.307	-0.18775	-11.5179	-0.0592	0.0182	-0.0073	-0.0462	0.0165	0.9585
38.976	44.6291	783.2352	54.5066	-308.8316	-34.9675	814.4885	0.081102	-10.7291	0.79904	-3.8073	-0.70277	-13.2382	-0.0592	0.0182	-0.0073	-0.0462	0.0165	0.9585
38.9895	46.8485	774.9458	55.2129	-304.6846	-34.6617	803.3296	1.4781	-10.4936	1.0769	-3.7202	-1.5283	-12.9031	-0.0592	0.0182	-0.0073	-0.0462	0.0165	0.9585
39.003	48.8738	763.6344	56.0149	-299.2445	-34.6013	789.4447	3.5041	-7.2409	1.4897	-2.5544	-2.7217	-8.8004	-0.0592	0.0182	-0.0073	-0.0462	0.0165	0.9585
39.0165	50.6825	750.2346	56.9282	-292.9131	-34.8061	773.8298	6.1716	0.80919	2.042	0.32101	-4.2905	1.2823	-0.0592	0.0182	-0.0073	-0.0462	0.0165	0.9585
39.03	52.2011	735.5226	57.9257	-286.0275	-35.2675	757.3164	9.3444	15.6721	2.7119	5.6211	-6.1533	19.8406	-0.0592	0.0182	-0.0073	-0.0462	0.0165	0.9585
39.0435	53.3154	719.8109	58.8871	-278.7418	-35.9001	740.2436	12.6098	39.3021	3.4303	14.0369	-8.0673	49.3009	-0.0592	0.0182	-0.0073	-0.0462	0.0165	0.9585
39.057	53.8857	702.758	59.625	-270.9512	-36.5631	722.2811	15.2058	73.0328	4.0504	26.0386	-9.5706	91.3173	-0.0592	0.0182	-0.0073	-0.0462	0.0165	0.9585
39.0705	53.7265	683.3849	59.8766	-262.2994	-37.0582	702.4562	15.8747	116.6962	4.3183	41.5602	-9.9115	145.6784	-0.0592	0.0182	-0.0073	-0.0462	0.0165	0.9585
39.084	52.6605	660.3553	59.3627	-252.2961	-37.1668	679.4004	12.9559	167.5486	3.8476	59.6164	-8.0635	208.975	-0.0592	0.0182	-0.0073	-0.0462	0.0165	0.9585
39.0975	50.5857	632.5911	57.8131	-240.5617	-36.6547	651.9778	6.0453	220.4121	2.1172	78.3305	-3.2947	274.7954	-0.0592	0.0182	-0.0073	-0.0462	0.0165	0.9585
39.111	47.5783	599.8615	55.0823	-227.0556	-35.3467	619.846	-2.9567	269.6645	-1.081	95.68	3.8978	336.0345	-0.0592	0.0182	-0.0073	-0.0462	0.0165	0.9585
39.1245	43.9101	562.9447	51.2761	-212.1198	-33.2397	583.6193	-11.9638	312.0339	-5.3762	110.5155	12.3246	388.3401	-0.0592	0.0182	-0.0073	-0.0462	0.0165	0.9585
39.138	39.9983	523.1674	46.7195	-196.2999	-30.4818	544.4176	-19.8397	347.7168	-10.2989	122.9284	21.0092	431.8051	-0.0592	0.0182	-0.0073	-0.0462	0.0165	0.9585
39.1515	36.2209	481.7154	41.8018	-180.0758	-27.2975	503.2318	-26.0582	378.7875	-15.2015	133.7005	29.0277	468.9809	-0.0592	0.0182	-0.0073	-0.0462	0.0165	0.9585
39.165	32.7106	439.2396	36.8284	-163.7022	-23.9177	460.5988	-30.6226	407.6686	-19.6902	143.7294	35.9124	502.9465	-0.0592	0.0182	-0.0073	-0.0462	0.0165	0.9585
39.1785	29.3807	396.0546	31.9692	-147.2788	-20.5311	416.7914	-33.6294	436.2859	-23.475	153.7292	41.3883	536.1113	-0.0592	0.0182	-0.0073	-0.0462	0.0165	0.9585
39.192	26.0037	352.3948	27.2974	-130.848	-17.2915	372.0774	-35.2491	465.9965	-26.6047	164.1795	45.589	570.1743	-0.0592	0.0182	-0.0073	-0.0462	0.0165	0.9585
39.2055	22.3139	308.5614	22.8947	-114.4671	-14.3805	326.8325	-35.742	497.7054	-29.3394	175.3667	48.9367	606.3054	-0.0592	0.0182	-0.0073	-0.0462	0.0165	0.9585
39.219	18.0997	265.0993	18.8516	-98.2848	-11.9809	281.6879	-35.4268	531.7117	-32.0787	187.3504	52.0322	644.9523	-0.0592	0.0182	-0.0073	-0.0462	0.0165	0.9585
39.2325	13.2896	222.8503	15.2721	-82.5724	-10.2379	237.5816	-34.7741	567.7659	-35.2256	199.9811	55.5116	685.9333	-0.0592	0.0182	-0.0073	-0.0462	0.0165	0.9585
39.246	8.0734	182.8757	12.2283	-67.7015	-9.1698	195.6617	-34.2601	605.1861	-39.0256	212.9633	59.8204	728.5024	-0.0592	0.0182	-0.0073	-0.0462	0.0165	0.9585
39.2595	2.8701	146.2267	9.7533	-54.0568	-8.6614	157.0588	-34.272	643.0498	-43.5257	225.9252	65.1181	771.6173	-0.0592	0.0182	-0.0073	-0.0462	0.0165	0.9585
39.273	-1.784	113.6285	7.8059	-41.9179	-8.4771	122.5519	-34.9093	680.1298	-48.4562	238.4172	71.1089	813.814	-0.0592	0.0182	-0.0073	-0.0462	0.0165	0.9585
39.2865	-5.4683	85.4016	6.2639	-31.4194	-8.3366	92.5244	-36.0547	714.9097	-53.4449	249.9047	77.2953	853.2609	-0.0592	0.0182	-0.0073	-0.0462	0.0165	0.9585
39.3	-7.9175	61.5645	4.9917	-22.5771	-8.0002	67.0484	-37.4701	745.6977	-58.0685	259.8079	83.0943	887.9035	-0.0592	0.0182	-0.0073	-0.0462	0.0165	0.9585
39.3135	-9.0101	41.99	3.8663	-15.3441	-7.297	46.0358	-38.8545	770.8293	-62.0909	267.5661	88.1093	915.7253	-0.0592	0.0182	-0.0073	-0.0462	0.0165	0.9585
39.327	-8.7744	26.4729	2.8266	-9.6384	-6.1738	29.319	-39.9173	788.925	-65.361	272.7293	92.0582	935.0686	-0.0592	0.0182	-0.0073	-0.0462	0.0165	0.9585
39.3405	-7.4511	14.7955	1.8707	-5.3698	-4.7246	16.6833	-40.3632	799.0896	-67.8409	275.0333	94.7903	944.8437	-0.0592	0.0182	-0.0073	-0.0462	0.0165	0.9585
39.354	-5.6419	6.7436	1.0658	-2.4395	-3.2417	7.9196	-39.9841	801.1707	-69.4626	274.4892	96.1698	944.8499	-0.0592	0.0182	-0.0073	-0.0462	0.0165	0.9585
39.3675	-3.8103	1.7737	0.47323	-0.64021	-1.9643	2.4587	-38.6739	795.8512	-70.2013	271.4095	96.1533	935.8879	-0.0592	0.0182	-0.0073	-0.0462	0.0165	0.9585
39.381	-2.236	-0.83429	0.079325	0.2929	-0.98247	-0.44373	-36.4499	784.6734	-70.0456	266.4051	94.7688	919.7831	-0.0592	0.0182	-0.0073	-0.0462	0.0165	0.9585
39.3945	-1.0128	-1.8031	-0.13571	0.62446	-0.31326	-1.5713	-33.4322	769.7961	-69.0985	260.2864	92.2037	899.0965	-0.0592	0.0182	-0.0073	-0.0462	0.0165	0.9585
39.408	-0.15081	-1.745	-0.23014	0.57886	0.099152	-1.5788	-29.8204	753.6421	-67.5153	253.9351	88.7365	876.6886	-0.0592	0.0182	-0.0073	-0.0462	0.0165	0.9585
39.4215	0.39459	-1.1373	-0.23266	0.33197	0.30461	-0.96861	-25.868	738.5766	-65.4967	248.1907	84.7047	855.3498	-0.0592	0.0182	-0.0073	-0.0462	0.0165	0.9585
39.435	0.69793	-0.30225	-0.18799	0.0027589	0.37663	-0.094616	-21.8237	726.6263	-63.2246	243.7558	80.415	837.463	-0.0592	0.0182	-0.0073	-0.0462	0.0165	0.9585
39.4485	0.81361	0.56274	-0.11587	-0.33272	0.35755	0.83217	-17.8852	719.212	-60.8823	241.1067	76.144	824.6926	-0.0592	0.0182	-0.0073	-0.0462	0.0165	0.9585
39.462	0.82146	1.3374	-0.051147	-0.62934	0.30422	1.6663	-14.1706	716.9834	-58.6212	240.4405	72.1024	817.7958	-0.0592	0.0182	-0.0073	-0.0462	0.0165	0.9585
39.4755	0.75296	1.9726	0.004926	-0.86656	0.22818	2.3606	-10.7321	719.7978	-56.5717	241.6742	68.4486	816.607	-0.0592	0.0182	-0.0073	-0.0462	0.0165	0.9585
39.489	0.64861	2.4377	0.041571	-1.0347	0.15317	2.8702	-7.5907	726.8432	-54.8017	244.4926	65.2582	820.2027	-0.0592	0.0182	-0.0073	-0.0462	0.0165	0.9585
39.5025	0.52266	2.7137	0.071084	-1.1269	0.075529	3.1736	-4.7521	736.8215	-53.3183	248.415	62.53	827.1286	-0.0592	0.0182	-0.0073	-0.0462	0.0165	0.9585
39.516	0.37677	2.7892	0.097498	-1.1379	-0.0041203	3.2601	-2.1913	748.1368	-52.0926	252.8623	60.2081	835.6095	-0.0592	0.0182	-0.0073	-0.0462	0.0165	0.9585
39.5295	0.22337	2.6246	0.13345	-1.0528	-0.092737	3.0705	0.12932	759.1219	-51.0768	257.2335	58.2095	843.7989	-0.0592	0.0182	-0.0073	-0.0462	0.0165	0.9585
39.543	0.052063	2.1646	0.17959	-0.84922	-0.19938	2.5311	2.2649	768.2718	-50.2227	260.9832	56.4466	850.037	-0.0592	0.0182	-0.0073	-0.0462	0.0165	0.9585
39.5565	-0.11414	1.3335	0.24048	-0.49897	-0.3293	1.5307	4.2616	774.4557	-49.4821	263.6979	54.8335	853.0952	-0.0592	0.0182	-0.0073	-0.0462	0.0165	0.9585
39.57	-0.26374	0.06602	0.31414	0.023257	-0.47664	-0.0096766	6.14	777.0719	-48.8192	265.1485	53.3093	852.3443	-0.0592	0.0182	-0.0073	-0.0462	0.0165	0.9585
39.5835	-0.36461	-1.6739	0.38617	0.72914	-0.60944	-2.1328	7.9059	776.077	-48.2223	265.3003	51.8555	847.7708	-0.0592	0.0182	-0.0073	-0.0462	0.0165	0.9585
39.597	-0.36183	-3.8349	0.43692	1.5961	-0.67741	-4.7764	9.5416	771.9492	-47.7256	264.2946	50.5184	839.9342	-0.0592	0.0182	-0.0073	-0.0462	0.0165	0.9585
39.6105	-0.18146	-6.2	0.42181	2.5368	-0.59546	-7.6668	11.0416	765.622	-47.388	262.4271	49.3695	829.8671	-0.0592	0.0182	-0.0073	-0.0462	0.0165	0.9585
39.624	0.29705	-8.3397	0.28713	3.3766	-0.24937	-10.2765	12.4176	758.3575	-47.2936	260.1032	48.4997	818.9448	-0.0592	0.0182	-0.0073	-0.0462	0.0165	0.9585
